<svg viewBox="-1290 -1008.5 12442.5 14853.5" width="12442.5" height="14853.5" version="1.1" baseProfile="full" xmlns="http://www.w3.org/2000/svg" class="js-draw--autoresize"><style id="js-draw-style-sheet">path{stroke-linecap:round;stroke-linejoin:round;}text{white-space:pre;}</style><path d="M11152.5,13845l0-14853.5l-12442.5,0l0,14853.5l12442.5,0" fill="#ffffff" class="js-draw-image-background"></path><path d="M-34,-249q-24,8 -51,24q-19,11 -19,60q0,22 26,43q39,3 74-3q26-5 26,30q0,16 -32,69q-10,17 -42,11q-29-6 -13-58q9-32 44-71q32-36 58-65q17-19 6-42q-5-11 -13,4q-3,6 -3,48q12,42 27,75q4,13 6,23q6-26 10-74q2-21 20-21q20,11 35,25q7,7 40-30q8-9 8-56q0-20 -20-13q-22,7 -31,35q0,21 2,39q4,33 31,40q19,5 24-9q10-13 20-23q4-4 0-4" fill="none" stroke="#803380" stroke-width="8"></path><path d="M207,-627q-130,66 -219,153q-175,172 -167,386q6,137 112,147q81,7 234-90q241-152 162-507q-29-129 -127-111q-118,46 -212,93" fill="none" stroke="#cc6633" stroke-width="13"></path><path d="M-119,324q315-144 348-110q-4,15 -13,28" fill="none" stroke="#cc6633" stroke-width="13"></path><path d="M19,316q32,225 37,220" fill="none" stroke="#cc6633" stroke-width="13"></path><path d="M77,304q35,87 60,193" fill="none" stroke="#cc6633" stroke-width="13"></path><path d="M120,430q42-23 47-48q-4-50 -12-90q14,24 34,70q23,35 45,62" fill="none" stroke="#cc6633" stroke-width="13"></path><path d="M231,296q89-38 97-49" fill="none" stroke="#cc6633" stroke-width="13"></path><path d="M275,303q-2,82 22,138" fill="none" stroke="#cc6633" stroke-width="13"></path><path d="M249,473q171-86 150-96" fill="none" stroke="#cc6633" stroke-width="13"></path><path d="M373,249q3,35 16,45q30,19 56,34q23,14 -43,74q-15,14 -27,26" fill="none" stroke="#cc6633" stroke-width="13"></path><path d="M463,279q253-118 248-100q-26,20 -54,32" fill="none" stroke="#cc6633" stroke-width="13"></path><path d="M572,249q2,29 6,75q3,50 6,92" fill="none" stroke="#cc6633" stroke-width="13"></path><path d="M524,445q202-96 226-119" fill="none" stroke="#cc6633" stroke-width="13"></path><path d="M713,173q-89,63 -44,89q49,17 91,27q39,9 18,31q-1,1 -93,29q-64,20 -116,38" fill="none" stroke="#cc6633" stroke-width="13"></path><path d="M-66,809q-138,12 -186,52q-48,40 49,45q156,7 207,101q35,65 -160,109q-125,28 -70-72q43-76 120,9q121,133 125,136q24,22 32,2q-2-21 -9-38" fill="none" stroke="#cc6633" stroke-width="13"></path><path d="M20,746q55,331 56,300q5-188 76-168q34,23 60,46q31,27 44-38q20-93 -15-155q-16-28 -31,22q-29,103 93,186q64,30 118,50" fill="none" stroke="#cc6633" stroke-width="13"></path><path d="M298,660q84,195 113,209q9,5 17-92q5-53 10-96q-17,32 -40,92q21-27 55-82q25-45 45-82q7,29 7,79q1,61 38,94q21,18 61-82q49-123 37-115q-32,21 1,76q26,43 55,1q26-37 -5-73q-27-30 -31,35q-5,64 45,78q45,13 87-169q2,18 2,51q0,28 28,1q37-42 65-77q18,26 28,72q39,45 82,75" fill="none" stroke="#cc6633" stroke-width="13"></path><path d="M550,-847q-165-49 -275-33q-367,54 -842,270q-129,59 -129,273q5,670 10,1218q4,399 173,581q114,123 846-43q164-37 565-261q459-256 463-264q91-171 1-676q-13-75 -159-603q-117-426 -465-503q-178-46 -323-87q-10-3 -52,0" fill="none" stroke="#803380" stroke-width="61"></path><path d="M-1202,2140q-2,62 -5,296q-2,135 -3,125q-43-434 127-582q23-20 82,181q33,111 63,202" fill="none" stroke="#cc6633" stroke-width="31"></path><path d="M-1157,2336q176-218 240-371q23,71 33,199q17,77 35,139q-5-110 -32-310q-9-74 55-25q114,93 205,172q22,19 5-57q-6-23 -48-154q-36-111 -34-110q48,15 88,27" fill="none" stroke="#cc6633" stroke-width="31"></path><path d="M-524,1758q33,307 23,231q-21-156 -6-184q61-111 198-31q113,67 69,152q-101,70 -201,111" fill="none" stroke="#cc6633" stroke-width="31"></path><path d="M111,1610q-38,90 -16,118q122,52 239,72q106,17 45,93q-118,77 -226,126" fill="none" stroke="#cc6633" stroke-width="31"></path><path d="M417,1587q62,236 104,263q19,14 148-58q57-28 104-51" fill="none" stroke="#cc6633" stroke-width="31"></path><path d="M643,1477q83,187 151,340" fill="none" stroke="#cc6633" stroke-width="31"></path><path d="M796,1390q-28,435 96,401q56-60 91-124q26,54 40,151q37,74 77,131" fill="none" stroke="#cc6633" stroke-width="31"></path><path d="M1014,1407q34,265 38,361q1,33 -26,19q-62-31 158-461q14-29 16-15q1,175 -5,318q12,52 28,94" fill="none" stroke="#cc6633" stroke-width="31"></path><path d="M1151,1378q157-56 296-181" fill="none" stroke="#cc6633" stroke-width="31"></path><path d="M1321,1374q51,220 90,400" fill="none" stroke="#cc6633" stroke-width="31"></path><path d="M1600,1220q10,120 50,420q100-10 210-60q60-20 110-30" fill="none" stroke="#cc6633" stroke-width="40"></path><path d="M1780,1210q140,100 190,20q0,0 0,0q50,180 80,330q30,30 50,50" fill="none" stroke="#cc6633" stroke-width="40"></path><path d="M-610,2980q-290,120 -410,240q-250,260 50,250q480,0 300,310q-60,110 -330,240q-40,20 -80-10q-20-60 -20-120" fill="none" stroke="#cc6633" stroke-width="40"></path><path d="M-320,3000q-130,170 -150,330q-20,200 140,190q70-10 270-310q10,0 10,10" fill="none" stroke="#cc6633" stroke-width="40"></path><path d="M-50,2850q110,750 50,450q-80-470 100-620q50-30 30,60q-50,170 -110,310q-20,30 270-40q190-70 340-140" fill="none" stroke="#cc6633" stroke-width="40"></path><path d="M410,2470q-120,220 -50,290q90-10 180-40q-40,80 -140,200q-100,120 -20,200q30,40 280-80q100-60 180-100" fill="none" stroke="#cc6633" stroke-width="40"></path><path d="M560,2500q110,230 140,270q40,80 90-220q10-60 10-50q40,310 130,260q20-20 0-280q-10-100 -20-180q10,50 30,130" fill="none" stroke="#cc6633" stroke-width="40"></path><path d="M1060,2020q30,150 120,180q60,0 120-10q-50,20 -130,60q-130,60 -100,230q20,140 170,60q160-80 90-450q-20-10 -30-20q0,150 60,380q-20-80 -70-230q-40-140 120-210q140-70 150,190q10,170 -340,380" fill="none" stroke="#cc6633" stroke-width="40"></path><path d="M-380,4250q0,50 10,180q20,270 -30,180q-70-140 0-400q50-210 200-60q110,100 160,360" fill="none" stroke="#cc6633" stroke-width="40"></path><path d="M-310,4400q20-20 40-40q130-120 240-220" fill="none" stroke="#cc6633" stroke-width="40"></path><path d="M-20,4000q320-210 320-210" fill="none" stroke="#cc6633" stroke-width="40"></path><path d="M160,3810q40,80 110,190q170,290 310,520" fill="none" stroke="#cc6633" stroke-width="40"></path><path d="M510,3800q240,490 130,330q-100-140 -90-470q0-110 60-50q10,10 160,280q50,90 90,160" fill="none" stroke="#cc6633" stroke-width="40"></path><path d="M750,3840q40-300 150-260q30,20 90,230q60,240 100,240q20-40 20-90" fill="none" stroke="#cc6633" stroke-width="40"></path><path d="M1060,3330q180,760 280,760" fill="none" stroke="#cc6633" stroke-width="40"></path><path d="M1270,3430q110,750 50,560q-10-30 -20-220q-50-570 50-500q80,120 130,240q40,90 130,150q0,0 -10-280q-30-380 -20-380q30,10 50,10q40,0 140,290q120,290 50,270q-20,0 -80-260q-100-390 80-430q100-10 120,370q20,250 -50,280q-10-50 0-110" fill="none" stroke="#cc6633" stroke-width="40"></path><path d="M1980,2960q3,3 0,3q-3,0 -3-3q0-3 3-3q3,0 3,3" fill="none" stroke="#cc6633" stroke-width="26"></path><path d="M-470,7250q380-500 440-560q10-10 20-20" fill="none" stroke="#cc6633" stroke-width="40"></path><path d="M-120,6950q220,280 390,520" fill="none" stroke="#cc6633" stroke-width="40"></path><path d="M140,6660q400,570 400,550" fill="none" stroke="#cc6633" stroke-width="40"></path><path d="M320,6970q140-270 100-440q30,40 70,120q80,160 290,170q20-20 20-50" fill="none" stroke="#cc6633" stroke-width="40"></path><path d="M570,6290q260,470 350,460" fill="none" stroke="#cc6633" stroke-width="40"></path><path d="M840,6040q-70,210 -20,320q40,80 250,60q120-10 40,220q-40,110 -80,120" fill="none" stroke="#cc6633" stroke-width="40"></path><path d="M1450,5850q-10-410 -170-400q-10,0 -60,120q-70,190 50,440q30,130 40,250q0,30 10,60" fill="none" stroke="#cc6633" stroke-width="40"></path><path d="M1200,6010q500-320 540-420q-10,10 -30,30q10-30 40-90q30-70 -200-370q-10-20 50,230q80,260 150,470q50,80 90,140q10,20 20,50" fill="none" stroke="#cc6633" stroke-width="40"></path><path d="M1930,5070q40,410 70,740q-20-150 -60-430q0-170 10-300q-10,10 -10,30q40,10 80,10q30,0 290,160q150,90 260,170q-10-10 -30-10q-30,0 -60,20" fill="none" stroke="#cc6633" stroke-width="40"></path><path d="M2010,5630q310-380 390-420q-10,0 -20,10" fill="none" stroke="#cc6633" stroke-width="40"></path><path d="M2500,4760q-450,310 -400,350q200,10 370-20q190-30 430,150q10,10 0,10q-110,60 -200,130q-140,120 -230,120q0-10 10-20" fill="none" stroke="#cc6633" stroke-width="40"></path><path d="M1130,7880q510,510 510,670q-40-30 -80-90q-450-660 -370-690q90-20 620,100q490,120 450,80q-80-90 -410-520q-120-160 -230-290q20-10 60-10" fill="none" stroke="#cc6633" stroke-width="40"></path><path d="M1980,6710q-130,210 -130,380q0,320 290,380q190,40 370-200q180-220 -70-520q-160-200 -440,0q-100,80 -180,150" fill="none" stroke="#cc6633" stroke-width="40"></path><path d="M2480,9150q230,260 540,580q0,0 -10,0q-200-120 -490-700q-250-500 -70-510q170,100 300,220q10,0 460,310" fill="none" stroke="#cc6633" stroke-width="40"></path><path d="M2780,9310q70-220 160-740" fill="none" stroke="#cc6633" stroke-width="40"></path><path d="M2740,8300q350,180 580,390q30,10 50,10q-70-10 -200-30q-190-40 -340-220q-160-180 20-380q170-190 520-80q370,110 160,820q-60,150 -100,270q10-50 40-150" fill="none" stroke="#cc6633" stroke-width="40"></path><path d="M3200,7780q130,70 420,250q300,170 540,300q-20-40 -80-100q-20-20 -250-370q-160-280 -300-520q10,30 40,70q0-10 0-20" fill="none" stroke="#cc6633" stroke-width="40"></path><path d="M3890,7190q470,760 510,920q-60-160 -170-450q-140-350 -240-630q-60-150 0-140q220,110 390,220q80,60 350,190q20,10 -60-70q-40-30 -70-60" fill="none" stroke="#cc6633" stroke-width="40"></path><path d="M4220,7500q100-350 180-640" fill="none" stroke="#cc6633" stroke-width="40"></path><path d="M4490,6630q620,470 450,440q-110-10 -370-370q-160-210 -50-270q220,20 410,100q230,90 230,0q0-40 -240-210q-340-240 -330-250q20-50 40-90" fill="none" stroke="#cc6633" stroke-width="60"></path><path d="M4840,6060q190-730 210-710" fill="none" stroke="#cc6633" stroke-width="60"></path><path d="M4920,5890q430,220 450,240" fill="none" stroke="#cc6633" stroke-width="60"></path><path d="M5290,5160q200,310 370,570q40,70 -40,40q-230-80 -340-530q-50-240 320-140q260,70 520-90" fill="none" stroke="#cc6633" stroke-width="80"></path><path d="M5510,5430q70-190 130-350" fill="none" stroke="#cc6633" stroke-width="80"></path><path d="M5600,4410q480,690 560,310q0-110 0-210q100,50 220,190q250,260 380-50" fill="none" stroke="#cc6633" stroke-width="80"></path><path d="M5970,3870q120,260 250,260q140-80 240-170q60,70 90,180q60,200 220,70q50-40 40-270q-40-400 -80-730" fill="none" stroke="#cc6633" stroke-width="80"></path><path d="M3530,12130q230-1080 400-1960q50-80 90-140q40,80 50,220q10,80 530,600q710,720 800,740q10,10 -50-40" fill="none" stroke="#cc6633" stroke-width="110"></path><path d="M4440,10150q60-840 200-770q590,500 1020,990q30,40 -20-180q-50-640 -50-1160q0-230 -130-230q-50-10 160,140q1120,740 1240,340" fill="none" stroke="#cc6633" stroke-width="110"></path><path d="M5760,8060q1440,830 1690,750q10-50 0-110" fill="none" stroke="#cc6633" stroke-width="110"></path><path d="M6480,7270q180,570 540,720q580,30 1070-20q380-50 130,870q-80,300 -100,280" fill="none" stroke="#cc6633" stroke-width="110"></path><path d="M6920,6760q290-980 530-1780" fill="none" stroke="#cc6633" stroke-width="110"></path><path d="M7090,6360q530,370 1440,650" fill="none" stroke="#cc6633" stroke-width="110"></path><path d="M8040,7780q150-800 270-1460" fill="none" stroke="#cc6633" stroke-width="110"></path><path d="M7460,5450q110,370 340,470q180,70 560-180q170-110 130,620q-20,530 120,1730" fill="none" stroke="#cc6633" stroke-width="110"></path><path d="M7530,13770q790,50 1010,0q-150-30 -420-40q-210,0 -630-150q-170-60 80-160q560-230 710-350q-130-30 -350-30q-260,10 -650-190q-180-90 -240-300q-20-120 -40-220" fill="none" stroke="#cc6633" stroke-width="50"></path><path d="M7130,12230q360,230 590,220q240-10 250-270q20-210 -300-310q-290-80 -390,330q-20,80 60,60q260-80 -480-1610" fill="none" stroke="#cc6633" stroke-width="50"></path><path d="M7150,11410q30-510 40-920q0-70 40-30q40,120 50,220q30,200 690,300q420,40 770,80" fill="none" stroke="#cc6633" stroke-width="50"></path><path d="M10429,12798q130-21 243-70q206-88 193-106" fill="none" stroke="#cc6633" stroke-width="15"></path><path d="M10736,12783q-116,64 -242,89q-202,41 -301-50q-27-25 150-57q188-34 325-8q2,1 2-2q6-169 4-188q-7-50 -70-52q-88,12 -159,27" fill="none" stroke="#cc6633" stroke-width="15"></path><path d="M10368,12585q160-32 221-90q42-41 -14-56q-78-21 -205,62q-83,53 -81,97q4-7 9-19q10-30 -124-138q-53-43 -43-46q131-27 238-48q32-8 58-15q-84,21 -239,60q-128,32 -108-1q52-38 102-63q44-23 72-77q18-35 -113-17q-186,26 -175,18q43-28 79-49q50-29 50-87q0-25 -74-32q-2-2 -3-3q24-21 62-35q41-14 100-78q11-21 18-39" fill="none" stroke="#cc6633" stroke-width="15"></path><path d="M9843,12090q358-93 430-150q-67,33 -186,101q-139,81 -203,33q-24-19 55-112q39-45 102-178" fill="none" stroke="#cc6633" stroke-width="15"></path><path d="M10084,12042q-139-84 -381-180" fill="none" stroke="#cc6633" stroke-width="15"></path><path d="M9763,12043q377-268 320-278q-6-1 -96,79q-128,112 -224,165q27-29 81-77q37-32 51-94q10-46 -121,0q-149,50 -271,89" fill="none" stroke="#cc6633" stroke-width="15"></path><path d="M11017,12580q-31-24 -108-91q-244-213 -247-206" fill="none" stroke="#cc6633" stroke-width="15"></path><path d="M10885,12407q87-51 155-129q61-99 105-185" fill="none" stroke="#cc6633" stroke-width="15"></path><path d="M10728,12277q56-39 101-87q80-95 143-174" fill="none" stroke="#cc6633" stroke-width="15"></path><path d="M10525,12077q105-12 156-68q55-58 30-144q-53-87 -105-154" fill="none" stroke="#cc6633" stroke-width="15"></path></svg>